HIERARCHY
ROOT hip
{
	OFFSET	0.00  0.00  0.00 
	CHANNELS 6 Xposition Yposition Zposition Xrotation Zrotation Yrotation
	JOINT waist
	{
		OFFSET	0.000000 2.191865 -0.079388
		CHANNELS 3 Xrotation Zrotation Yrotation
		JOINT abdomen
		{
			OFFSET	0.000000 2.770984 0.119082
			CHANNELS 3 Xrotation Zrotation Yrotation
			JOINT chest
			{
				OFFSET	0.000000 2.879627 -0.290598
				CHANNELS 3 Xrotation Zrotation Yrotation
				JOINT neck
				{
					OFFSET	0.000000 12.342733 -1.613748
					CHANNELS 3 Xrotation Zrotation Yrotation
					JOINT head
					{
						OFFSET	0.000000 4.485597 1.807195
						CHANNELS 3 Xrotation Zrotation Yrotation
						End Site
						{
							OFFSET 0.000000 7.191734 2.024398
						}
					}
				}
				JOINT lCollar
				{
					OFFSET	1.858774 10.237258 -1.915852
					CHANNELS 3 Zrotation Yrotation Xrotation
					JOINT lShldr
					{
						OFFSET	6.103279 0.000102 -0.038601
						CHANNELS 3 Zrotation Yrotation Xrotation
						JOINT lForeArm
						{
							OFFSET	10.574100 -0.365985 -0.655940
							CHANNELS 3 Zrotation Yrotation Xrotation
							JOINT lHand
							{
								OFFSET	13.213392 -0.641131 0.276866
								CHANNELS 3 Zrotation Yrotation Xrotation
								JOINT lThumb1
								{
									OFFSET	1.920964 -1.225712 1.722395
									CHANNELS 3 Zrotation Yrotation Xrotation
									JOINT lThumb2
									{
										OFFSET	0.248544 -0.143036 0.768265
										CHANNELS 3 Zrotation Yrotation Xrotation
										JOINT lThumb3
										{
											OFFSET	0.628484 -0.225174 0.508305
											CHANNELS 3 Zrotation Yrotation Xrotation
											End Site
											{
												OFFSET 0.831712 -0.207978 0.609962
											}
										}
									}
								}
								JOINT lIndex1
								{
									OFFSET	5.093442 -0.710319 1.829884
									CHANNELS 3 Zrotation Yrotation Xrotation
									JOINT lIndex2
									{
										OFFSET	0.889470 -0.051998 0.127073
										CHANNELS 3 Zrotation Yrotation Xrotation
										JOINT lIndex3
										{
											OFFSET	0.889570 -0.155981 0.127073
											CHANNELS 3 Zrotation Yrotation Xrotation
											End Site
											{
												OFFSET 0.797115 -0.294470 0.076252
											}
										}
									}
								}
								JOINT lMid1
								{
									OFFSET	5.154641 -0.519844 0.864111
									CHANNELS 3 Zrotation Yrotation Xrotation
									JOINT lMid2
									{
										OFFSET	0.928821 -0.051992 0.050831
										CHANNELS 3 Zrotation Yrotation Xrotation
										JOINT lMid3
										{
											OFFSET	0.984253 -0.311865 0.050831
											CHANNELS 3 Zrotation Yrotation Xrotation
											End Site
											{
												OFFSET 0.779717 -0.606438 -0.050831
											}
										}
									}
								}
								JOINT lRing1
								{
									OFFSET	4.924408 -0.754930 -0.235503
									CHANNELS 3 Zrotation Yrotation Xrotation
									JOINT lRing2
									{
										OFFSET	0.981624 -0.036924 -0.108278
										CHANNELS 3 Zrotation Yrotation Xrotation
										JOINT lRing3
										{
											OFFSET	0.805613 -0.205247 -0.041717
											CHANNELS 3 Zrotation Yrotation Xrotation
											End Site
											{
												OFFSET 0.667431 -0.470481 -0.035991
											}
										}
									}
								}
								JOINT lPinky1
								{
									OFFSET	4.535460 -0.816635 -1.006206
									CHANNELS 3 Zrotation Yrotation Xrotation
									JOINT lPinky2
									{
										OFFSET	0.690596 -0.064334 -0.168800
										CHANNELS 3 Zrotation Yrotation Xrotation
										JOINT lPinky3
										{
											OFFSET	0.598039 -0.111176 -0.071973
											CHANNELS 3 Zrotation Yrotation Xrotation
											End Site
											{
												OFFSET 0.422025 -0.290925 -0.035981
											}
										}
									}
								}
							}
						}
					}
				}
				JOINT rCollar
				{
					OFFSET	-1.858774 10.237258 -1.915852
					CHANNELS 3 Zrotation Yrotation Xrotation
					JOINT rShldr
					{
						OFFSET	-6.103279 0.000102 -0.038601
						CHANNELS 3 Zrotation Yrotation Xrotation
						JOINT rForeArm
						{
							OFFSET	-10.574100 -0.365985 -0.655940
							CHANNELS 3 Zrotation Yrotation Xrotation
							JOINT rHand
							{
								OFFSET	-13.213392 -0.641131 0.276866
								CHANNELS 3 Zrotation Yrotation Xrotation
								JOINT rIndex1
								{
									OFFSET	-5.093442 -0.710319 1.829884
									CHANNELS 3 Zrotation Yrotation Xrotation
									JOINT rIndex2
									{
										OFFSET	-0.889470 -0.051998 0.127073
										CHANNELS 3 Zrotation Yrotation Xrotation
										JOINT rIndex3
										{
											OFFSET	-0.889570 -0.155981 0.127073
											CHANNELS 3 Zrotation Yrotation Xrotation
											End Site
											{
												OFFSET -0.797115 -0.294470 0.076252
											}
										}
									}
								}
								JOINT rThumb1
								{
									OFFSET	-1.920964 -1.225712 1.722395
									CHANNELS 3 Zrotation Yrotation Xrotation
									JOINT rThumb2
									{
										OFFSET	-0.248544 -0.143036 0.768265
										CHANNELS 3 Zrotation Yrotation Xrotation
										JOINT rThumb3
										{
											OFFSET	-0.628484 -0.225174 0.508305
											CHANNELS 3 Zrotation Yrotation Xrotation
											End Site
											{
												OFFSET -0.831712 -0.207978 0.609962
											}
										}
									}
								}
								JOINT rMid1
								{
									OFFSET	-5.154641 -0.519844 0.864111
									CHANNELS 3 Zrotation Yrotation Xrotation
									JOINT rMid2
									{
										OFFSET	-0.928821 -0.051992 0.050831
										CHANNELS 3 Zrotation Yrotation Xrotation
										JOINT rMid3
										{
											OFFSET	-0.984253 -0.311865 0.050831
											CHANNELS 3 Zrotation Yrotation Xrotation
											End Site
											{
												OFFSET -0.779717 -0.606438 -0.050831
											}
										}
									}
								}
								JOINT rRing1
								{
									OFFSET	-4.924408 -0.754930 -0.235503
									CHANNELS 3 Zrotation Yrotation Xrotation
									JOINT rRing2
									{
										OFFSET	-0.981624 -0.036924 -0.108278
										CHANNELS 3 Zrotation Yrotation Xrotation
										JOINT rRing3
										{
											OFFSET	-0.805613 -0.205247 -0.041717
											CHANNELS 3 Zrotation Yrotation Xrotation
											End Site
											{
												OFFSET -0.667431 -0.470481 -0.035991
											}
										}
									}
								}
								JOINT rPinky1
								{
									OFFSET	-4.535460 -0.816635 -1.006206
									CHANNELS 3 Zrotation Yrotation Xrotation
									JOINT rPinky2
									{
										OFFSET	-0.690596 -0.064334 -0.168800
										CHANNELS 3 Zrotation Yrotation Xrotation
										JOINT rPinky3
										{
											OFFSET	-0.598039 -0.111176 -0.071973
											CHANNELS 3 Zrotation Yrotation Xrotation
											End Site
											{
												OFFSET -0.422025 -0.290925 -0.035981
											}
										}
									}
								}
							}
						}
					}
				}
			}
		}
	}
	JOINT lThigh
	{
		OFFSET	5.761895 -0.730553 0.000101
		CHANNELS 3 Xrotation Zrotation Yrotation
		JOINT lShin
		{
			OFFSET	-1.171020 -18.459274 1.627449
			CHANNELS 3 Xrotation Zrotation Yrotation
			JOINT lFoot
			{
				OFFSET	-0.883715 -16.872776 -3.357785
				CHANNELS 3 Xrotation Zrotation Yrotation
				JOINT lToe
				{
					OFFSET	1.287613 -2.778491 2.836049
					CHANNELS 3 Xrotation Yrotation Zrotation
					End Site
					{
						OFFSET 1.362641 -0.436631 3.828194
					}
				}
			}
		}
	}
	JOINT rThigh
	{
		OFFSET	-5.761895 -0.730553 0.000101
		CHANNELS 3 Xrotation Zrotation Yrotation
		JOINT rShin
		{
			OFFSET	1.171020 -18.459274 1.627449
			CHANNELS 3 Xrotation Zrotation Yrotation
			JOINT rFoot
			{
				OFFSET	0.883715 -16.872776 -3.357785
				CHANNELS 3 Xrotation Zrotation Yrotation
				JOINT rToe
				{
					OFFSET	-1.287613 -2.778491 2.836049
					CHANNELS 3 Xrotation Yrotation Zrotation
					End Site
					{
						OFFSET -1.362641 -0.436631 3.828194
					}
				}
			}
		}
	}
}
MOTION
Frames:     4
Frame Time: 0.033333
0.000000 40.137459 -0.646068 21.108458 3.239999 -6.348756 -11.630865 -0.126837 0.005430 -6.928406 -3.007483 7.320139 12.135025 2.037308 9.621430 6.063386 -1.774171 0.431044 -10.388902 -0.473435 -12.707970 -10.979154 7.423891 1.863791 -65.033852 13.167459 12.625367 -7.429374 -115.266235 5.857403 22.477079 -4.813075 -4.654667 6.200675 -16.356153 78.685249 -17.230309 12.060945 21.851406 -84.038147 144.033798 -46.415787 -74.003586 6.586524 8.586662 -83.372581 6.947371 9.288309 -77.720909 2.513589 5.506639 -72.921501 3.274961 3.685891 -83.167931 2.025182 3.945074 -68.124657 -2.431767 -4.560087 -78.068848 -3.019333 -5.153396 -80.040001 -1.339592 -2.962377 -60.891060 -0.417812 -2.496894 -79.462181 -10.361498 -14.867670 -87.182808 -5.688785 -7.345301 -54.064919 -1.707161 -4.513374 -3.249957 8.549974 -9.410945 68.599037 16.148449 38.581150 18.918776 98.951843 13.682196 -25.349785 8.883365 -5.282761 73.934769 -6.197686 8.544051 83.135918 -6.957161 9.279955 77.858002 -2.696548 5.566033 -6.889418 16.051285 77.561768 17.302532 -11.613041 21.541536 84.044022 -144.004425 -46.440216 72.924744 -2.878583 3.653187 83.099350 -2.035503 3.938481 68.055984 2.227825 -4.412103 78.227272 3.435457 -5.158722 79.875061 1.309087 -2.964273 61.012772 0.165480 -2.331137 79.792213 10.665274 -14.907183 86.982330 5.635063 -7.346473 84.717285 2.410623 -5.154559 -38.070465 -3.173783 11.359794 0.372394 1.236994 0.141743 0.861902 -6.935749 8.636387 -1.342280 7.022259 -7.833645 -12.507101 -10.131403 3.291581 70.444496 -2.816343 -0.105032 116.993645 -21.802393 3.567178 -2.140280 0.203547 8.706838 
0.000000 40.137459 -0.646068 20.919998 5.053790 -3.472965 -11.650442 -0.370754 0.015871 -7.054114 -5.613835 5.353821 12.983268 1.748767 6.841247 5.734773 -1.475292 0.310312 -10.782654 1.446243 -11.841203 -9.492917 5.023035 0.682976 -65.242966 10.331707 12.775655 -6.492805 -117.824585 5.116552 23.156803 -4.585918 -4.656463 6.003219 -16.448286 79.093010 -17.185532 12.225086 21.956572 -84.030922 144.053436 -46.402519 -73.962929 6.728570 8.596754 -83.440048 6.956734 9.290129 -77.667809 2.463141 5.487334 -72.845085 3.417446 3.693489 -83.187431 2.026119 3.945338 -68.147568 -2.494379 -4.609014 -77.946884 -2.851469 -5.150312 -80.099052 -1.332972 -2.960835 -60.837925 -0.488017 -2.545911 -79.298904 -10.232771 -14.836472 -87.231216 -5.694483 -7.346067 -53.985813 -1.808225 -4.581533 -2.530789 5.601721 -8.280068 68.727112 14.967204 42.325825 24.430220 96.558594 19.820110 -27.091833 9.958827 -5.495102 73.932838 -6.010472 8.528776 83.039566 -6.943815 9.277286 77.928345 -2.766831 5.592765 -7.160530 15.923339 77.076744 17.380009 -11.381074 21.410284 84.062439 -144.028152 -46.432976 72.965340 -2.675657 3.641690 83.070686 -2.024813 3.935136 68.053856 2.150649 -4.351514 78.354485 3.652836 -5.162589 79.777016 1.313813 -2.965213 61.076756 0.071667 -2.265648 79.980659 10.810168 -14.939419 86.886856 5.614149 -7.342162 84.717285 2.410623 -5.154559 -38.908714 -4.824317 10.872135 12.419010 2.269573 -0.694176 2.151911 1.143099 4.171906 0.855662 7.905060 -8.446719 -22.304098 -9.818994 1.052528 86.509239 -3.056588 0.030533 122.281036 -21.926895 3.278132 -2.016869 -1.207277 8.516385 
0.000000 40.137459 -0.646068 20.591324 5.845609 -0.264719 -11.670072 -0.634185 0.027147 -6.385241 -8.237455 4.660966 13.973403 1.433380 1.314074 5.477096 -0.683659 0.001804 -8.656046 2.754319 -8.950212 -7.673200 2.075534 -0.759656 -64.713104 7.080141 12.980157 -5.880137 -119.691780 4.536187 23.609365 -4.285648 -4.638729 5.770092 -16.554382 79.544312 -17.113773 12.439146 22.082117 -84.014107 144.054916 -46.398537 -73.928986 6.891215 8.608440 -83.536407 6.970115 9.292713 -77.587624 2.392024 5.460690 -72.776184 3.599374 3.703480 -83.206337 2.036346 3.948551 -68.150139 -2.563856 -4.663665 -77.807228 -2.662407 -5.146384 -80.177048 -1.336744 -2.961985 -60.773983 -0.573855 -2.605763 -79.100754 -10.085761 -14.803243 -87.317009 -5.714251 -7.349201 -53.895134 -1.924861 -4.660514 -1.976528 2.702318 -7.020827 68.767906 13.814942 45.734528 35.092800 94.391930 31.873947 -29.636391 10.595620 -5.683073 73.937248 -5.578142 8.494126 82.827591 -6.914470 9.271337 78.097008 -2.918960 5.650116 -7.735054 15.646866 76.054512 17.597294 -10.844166 21.143316 84.161667 -144.127167 -46.438663 73.057755 -2.241099 3.616923 83.023117 -2.003901 3.928576 68.023079 1.964344 -4.205400 78.615906 4.117659 -5.170620 79.599876 1.333662 -2.969772 61.215458 -0.139581 -2.118183 80.393295 11.148485 -15.017550 86.684898 5.580700 -7.337002 84.717285 2.410623 -5.154559 -36.862862 -6.972944 9.941216 24.323635 2.925502 -1.388250 3.823890 4.056704 2.995497 1.661189 8.502089 -8.625730 -30.751925 -11.720595 -1.720421 95.254852 -2.727151 -0.086046 119.781769 -23.984350 2.449943 -1.438389 -2.660543 8.481268 
0.000000 40.137459 -0.646068 20.080717 5.422346 3.702842 -11.670277 -0.975669 0.041764 -3.762643 -9.985162 1.710517 14.307078 0.952920 -4.982844 5.722541 0.287389 -0.358008 -8.132121 3.841746 -4.701224 -5.707218 -1.096566 -2.329999 -63.767448 3.904767 13.224212 -5.753273 -120.702431 4.102819 23.414099 -3.911614 -4.584159 5.609401 -16.626890 79.854248 -17.055714 12.574394 22.152172 -83.987671 144.038223 -46.392365 -73.919968 7.017905 8.618687 -83.594223 6.978146 9.294252 -77.533463 2.350685 5.444762 -72.730606 3.714170 3.710001 -83.225830 2.037282 3.948813 -68.164009 -2.618382 -4.706704 -77.721466 -2.527226 -5.144054 -80.226349 -1.329654 -2.960294 -60.730972 -0.636391 -2.649512 -78.969505 -9.984675 -14.778817 -87.383446 -5.731741 -7.352020 -53.816654 -2.017906 -4.723183 -1.538754 -0.079985 -5.683785 68.748497 12.158516 48.645264 61.550739 92.632973 65.924469 -34.446777 8.209220 -5.574065 74.045570 -3.536552 8.342942 81.981216 -6.729566 9.232063 78.673958 -3.592884 5.905573 -10.259492 14.337200 71.508072 18.897631 -8.079037 20.005966 84.618088 -144.816467 -46.336311 73.618202 -0.190588 3.505445 82.894829 -1.867308 3.885081 67.791283 1.060138 -3.497738 80.056328 6.248394 -5.214991 78.801888 1.437260 -2.993814 61.763889 -1.192524 -1.382285 82.548866 12.617182 -15.349043 85.771957 5.425013 -7.309892 84.717285 2.410623 -5.154559 -31.299719 -6.680464 8.071982 26.040400 2.304029 -1.340438 5.282009 2.761989 4.074187 1.256417 9.134408 -8.384199 -35.163479 -11.957769 -5.043488 97.241142 -2.560591 -0.139969 109.851196 -26.070681 1.415739 0.318803 -4.666312 8.765605 
